<?xml version="1.0" encoding="UTF-8"?> <svg xmlns="http://www.w3.org/2000/svg" width="276" height="77" viewBox="0 0 276 77" fill="none"><path d="M115.374 25.8086H123.247L107.17 64.6187H99.3496L105.545 49.3957L95.2156 25.8086H103.256L109.398 40.8647L115.374 25.8086Z" fill="#1D252C"></path><path d="M124.875 38.8554C124.875 30.6049 131.462 25.1377 138.888 25.1377C146.313 25.1377 152.9 30.6049 152.9 38.8554C152.9 47.1059 146.306 52.5093 138.88 52.5093C131.455 52.5093 124.875 47.0527 124.875 38.8554ZM145.474 38.8554C145.474 34.787 142.517 31.9398 138.888 31.9398C135.258 31.9398 132.301 34.7799 132.301 38.8554C132.301 42.931 135.258 45.7143 138.888 45.7143C142.517 45.7143 145.467 42.8706 145.467 38.8554H145.474Z" fill="#1D252C"></path><path d="M184.102 37.5738V51.8489H176.79V37.9537C176.79 33.8817 174.334 32.0427 171.814 32.0427C169.191 32.0427 165.952 33.4379 165.952 38.1773V51.8383H158.644V25.8087H165.959V30.2144C167.076 26.6998 171.206 25.1377 173.78 25.1377C180.587 25.1377 184.159 29.7671 184.102 37.5738Z" fill="#1D252C"></path><path d="M210.733 11.6436H218.049V51.8488H210.733V48.604C208.892 51.2808 205.263 52.5092 202.359 52.5092C195.662 52.5092 189.562 47.1556 189.562 38.7914C189.562 30.4273 195.647 25.1305 202.359 25.1305C205.376 25.1305 208.892 26.3021 210.733 28.9789V11.6436ZM210.513 38.7985C210.51 36.9998 209.802 35.2738 208.539 33.9913C207.276 32.7088 205.56 31.9722 203.759 31.9397C202.864 31.9462 201.98 32.1288 201.156 32.4772C200.332 32.8256 199.585 33.3329 198.958 33.97C198.33 34.6071 197.835 35.3615 197.5 36.1901C197.165 37.0186 196.997 37.905 197.005 38.7985C197.005 42.5936 200.073 45.7142 203.759 45.7142C205.572 45.688 207.3 44.9456 208.566 43.6494C209.832 42.3533 210.532 40.609 210.513 38.7985Z" fill="#1D252C"></path><path d="M251.103 41.1985H231.513C232.295 44.2658 234.752 46.048 238.214 46.048C239.509 46.0425 240.789 45.7672 241.971 45.2396C243.154 44.7121 244.213 43.9439 245.081 42.9842L249.326 47.2763C246.869 50.5673 242.344 52.5163 237.769 52.5163C229.729 52.5163 223.867 46.8858 223.867 38.8554C223.867 30.4345 230.287 25.1377 237.713 25.1377C245.195 25.1377 251.281 30.4345 251.281 38.4117C251.27 39.1359 251.213 40.027 251.103 41.1985ZM243.898 36.4591C243.674 33.3918 241.164 31.4392 237.855 31.4392C234.841 31.4392 232.271 32.9444 231.489 36.4591H243.898Z" fill="#1D252C"></path><path d="M275.946 25.9755L274.272 32.9444C273.126 32.3127 271.837 31.9862 270.529 31.9966C266.79 31.9966 264.223 35.5112 264.223 42.9274V51.8489H256.908V25.8087H264.166V31.3824C265.616 27.0335 268.577 25.1377 271.816 25.1377C273.209 25.1377 274.773 25.3614 275.946 25.9755Z" fill="#1D252C"></path><path opacity="0.5" d="M40.8907 45.0326H40.1798C38.4198 45.0362 36.6614 44.9271 34.9154 44.706C34.5599 44.6563 34.2258 44.5995 33.881 44.5427L19.3391 76.2951H32.6262L46.7664 44.5924L46.3399 44.6599C44.5324 44.8911 42.7128 45.0156 40.8907 45.0326Z" fill="#1D252C"></path><path opacity="0.5" d="M40.1337 33.3598C41.7617 33.3598 47.385 33.2071 51.3484 31.2581H51.3733H51.4017C52.0345 31.0025 52.6494 30.7185 53.2572 30.4238L60.9316 13.6565C61.2746 12.9033 61.8877 12.3058 62.6501 11.9818C63.4124 11.6578 64.2686 11.6309 65.0499 11.9063C65.8311 12.1816 66.4807 12.7394 66.8705 13.4695C67.2603 14.1996 67.3621 15.0491 67.1557 15.8505L67.1771 15.7759L67.2126 15.7014C68.8833 12.3572 69.9639 7.41182 69.9639 3.10196V1.25589C66.3466 -0.321554 62.2536 -0.416623 58.5668 0.991163C54.8801 2.39895 51.8946 5.1969 50.2536 8.78218L39.0068 33.3385L39.5223 33.3598C39.5862 33.3385 39.7853 33.3598 40.1337 33.3598Z" fill="#1D252C"></path><path d="M71.5171 2.01909C71.382 1.94098 71.2469 1.85933 71.1083 1.78478C70.8026 1.62147 70.5005 1.46882 70.2054 1.33391L69.9637 1.23096V3.07703C69.9637 7.3869 68.8973 12.3322 67.2125 15.6765L67.1769 15.751L67.1556 15.8256C67.1076 16.0169 67.0421 16.2035 66.9601 16.3829C64.1664 22.5055 59.3198 27.4616 53.2571 30.3953C52.6492 30.69 52.0343 30.974 51.4016 31.2296H51.3731H51.3483C47.3849 33.1786 41.7508 33.3313 40.1335 33.3313C39.778 33.3313 39.5861 33.3313 39.5221 33.3313L39.0067 33.31C35.3372 33.1265 31.7363 32.247 28.3962 30.7184C24.4728 28.9296 20.9907 26.3019 18.196 23.0212C15.4013 19.7404 13.3621 15.8867 12.2227 11.7323H0.108643C2.76393 24.4844 11.885 36.072 23.5157 41.383C26.8138 42.8927 30.2982 43.9576 33.8774 44.5497C34.2328 44.6065 34.567 44.6633 34.9118 44.713C36.6578 44.9341 38.4162 45.0432 40.1761 45.0396H40.8871C42.7092 45.0226 44.5288 44.8981 46.3363 44.6669L46.7628 44.5994C53.4435 43.5745 59.7638 40.9052 65.1538 36.8321C70.5439 32.759 74.8342 27.4102 77.6381 21.2679C79.1852 17.872 79.4156 14.0235 78.2849 10.4676C77.1541 6.91166 74.7426 3.90122 71.5171 2.01909Z" fill="#1D252C"></path></svg> 